<mxfile host="Electron" modified="2024-03-29T14:36:36.007Z" agent="Mozilla/5.0 (Windows NT 10.0; Win64; x64) AppleWebKit/537.36 (KHTML, like Gecko) draw.io/24.0.4 Chrome/120.0.6099.109 Electron/28.1.0 Safari/537.36" etag="onm-IZLL4Hj3-cJ8FBzj" version="24.0.4" type="device" pages="2">
  <diagram name="第 1 页" id="ofbGrNo4NPfb0o0W3Y2y">
    <mxGraphModel dx="993" dy="639" grid="1" gridSize="10" guides="1" tooltips="1" connect="1" arrows="1" fold="1" page="1" pageScale="1" pageWidth="1350" pageHeight="600" math="0" shadow="0">
      <root>
        <mxCell id="0" />
        <mxCell id="1" parent="0" />
        <mxCell id="mTr0OVcNRnd7IH9XnR_G-3" value="" style="sketch=0;outlineConnect=0;fontColor=#232F3E;gradientColor=none;fillColor=#232F3D;strokeColor=none;dashed=0;verticalLabelPosition=bottom;verticalAlign=top;align=center;html=1;fontSize=12;fontStyle=0;aspect=fixed;pointerEvents=1;shape=mxgraph.aws4.mobile_client;" vertex="1" parent="1">
          <mxGeometry x="330" y="382" width="41" height="78" as="geometry" />
        </mxCell>
        <mxCell id="mTr0OVcNRnd7IH9XnR_G-4" value="" style="sketch=0;outlineConnect=0;fontColor=#232F3E;gradientColor=none;fillColor=#232F3D;strokeColor=none;dashed=0;verticalLabelPosition=bottom;verticalAlign=top;align=center;html=1;fontSize=12;fontStyle=0;aspect=fixed;pointerEvents=1;shape=mxgraph.aws4.mobile_client;" vertex="1" parent="1">
          <mxGeometry x="400" y="382" width="41" height="78" as="geometry" />
        </mxCell>
        <mxCell id="mTr0OVcNRnd7IH9XnR_G-5" value="" style="sketch=0;outlineConnect=0;fontColor=#232F3E;gradientColor=none;fillColor=#232F3D;strokeColor=none;dashed=0;verticalLabelPosition=bottom;verticalAlign=top;align=center;html=1;fontSize=12;fontStyle=0;aspect=fixed;pointerEvents=1;shape=mxgraph.aws4.mobile_client;" vertex="1" parent="1">
          <mxGeometry x="516" y="382" width="41" height="78" as="geometry" />
        </mxCell>
        <mxCell id="mTr0OVcNRnd7IH9XnR_G-6" value="..." style="text;html=1;align=center;verticalAlign=middle;resizable=0;points=[];autosize=1;strokeColor=none;fillColor=none;fontSize=18;" vertex="1" parent="1">
          <mxGeometry x="460" y="399" width="40" height="40" as="geometry" />
        </mxCell>
        <mxCell id="mTr0OVcNRnd7IH9XnR_G-10" value="" style="verticalLabelPosition=bottom;html=1;verticalAlign=top;strokeWidth=1;align=center;outlineConnect=0;dashed=0;outlineConnect=0;shape=mxgraph.aws3d.dataServer;strokeColor=#5E5E5E;aspect=fixed;" vertex="1" parent="1">
          <mxGeometry x="405.39" y="282" width="81.23" height="70" as="geometry" />
        </mxCell>
        <mxCell id="mTr0OVcNRnd7IH9XnR_G-14" value="&lt;span style=&quot;color: rgba(0, 0, 0, 0); font-family: monospace; font-size: 0px; text-align: start;&quot;&gt;%3CmxGraphModel%3E%3Croot%3E%3CmxCell%20id%3D%220%22%2F%3E%3CmxCell%20id%3D%221%22%20parent%3D%220%22%2F%3E%3CmxCell%20id%3D%222%22%20value%3D%22%22%20style%3D%22verticalLabelPosition%3Dbottom%3Bhtml%3D1%3BverticalAlign%3Dtop%3BstrokeWidth%3D1%3Balign%3Dcenter%3BoutlineConnect%3D0%3Bdashed%3D0%3BoutlineConnect%3D0%3Bshape%3Dmxgraph.aws3d.dataServer%3BstrokeColor%3D%235E5E5E%3Baspect%3Dfixed%3B%22%20vertex%3D%221%22%20parent%3D%221%22%3E%3CmxGeometry%20x%3D%22435.39%22%20y%3D%22320%22%20width%3D%2281.23%22%20height%3D%2270%22%20as%3D%22geometry%22%2F%3E%3C%2FmxCell%3E%3CmxCell%20id%3D%223%22%20value%3D%22%E6%9C%8D%E5%8A%A1%E5%99%A8%22%20style%3D%22text%3Bhtml%3D1%3Balign%3Dcenter%3BverticalAlign%3Dmiddle%3Bresizable%3D0%3Bpoints%3D%5B%5D%3Bautosize%3D1%3BstrokeColor%3Dnone%3BfillColor%3Dnone%3BfontSize%3D14%3B%22%20vertex%3D%221%22%20parent%3D%221%22%3E%3CmxGeometry%20x%3D%22370.39%22%20y%3D%22340%22%20width%3D%2270%22%20height%3D%2230%22%20as%3D%22geometry%22%2F%3E%3C%2FmxCell%3E%3C%2Froot%3E%3C%2FmxGraphModel%3E&lt;/span&gt;" style="sketch=0;points=[[0,0,0],[0.25,0,0],[0.5,0,0],[0.75,0,0],[1,0,0],[0,1,0],[0.25,1,0],[0.5,1,0],[0.75,1,0],[1,1,0],[0,0.25,0],[0,0.5,0],[0,0.75,0],[1,0.25,0],[1,0.5,0],[1,0.75,0]];outlineConnect=0;fontColor=#232F3E;fillColor=#01A88D;strokeColor=#ffffff;dashed=0;verticalLabelPosition=bottom;verticalAlign=top;align=center;html=1;fontSize=12;fontStyle=0;aspect=fixed;shape=mxgraph.aws4.resourceIcon;resIcon=mxgraph.aws4.deep_learning_amis;" vertex="1" parent="1">
          <mxGeometry x="406.39" y="170" width="78" height="78" as="geometry" />
        </mxCell>
        <mxCell id="mTr0OVcNRnd7IH9XnR_G-15" value="深度学习模型" style="text;html=1;align=center;verticalAlign=middle;resizable=0;points=[];autosize=1;strokeColor=none;fillColor=none;fontSize=14;" vertex="1" parent="1">
          <mxGeometry x="296.39" y="194" width="110" height="30" as="geometry" />
        </mxCell>
        <mxCell id="mTr0OVcNRnd7IH9XnR_G-16" value="服务器" style="text;html=1;align=center;verticalAlign=middle;resizable=0;points=[];autosize=1;strokeColor=none;fillColor=none;fontSize=14;" vertex="1" parent="1">
          <mxGeometry x="340.39" y="302" width="70" height="30" as="geometry" />
        </mxCell>
        <mxCell id="mTr0OVcNRnd7IH9XnR_G-17" value="移动设备" style="text;html=1;align=center;verticalAlign=middle;resizable=0;points=[];autosize=1;strokeColor=none;fillColor=none;fontSize=14;" vertex="1" parent="1">
          <mxGeometry x="250" y="404" width="80" height="30" as="geometry" />
        </mxCell>
        <mxCell id="mTr0OVcNRnd7IH9XnR_G-18" value="" style="endArrow=classic;html=1;rounded=0;" edge="1" parent="1" source="mTr0OVcNRnd7IH9XnR_G-3" target="mTr0OVcNRnd7IH9XnR_G-10">
          <mxGeometry width="50" height="50" relative="1" as="geometry">
            <mxPoint x="357" y="382" as="sourcePoint" />
            <mxPoint x="407" y="332" as="targetPoint" />
          </mxGeometry>
        </mxCell>
        <mxCell id="mTr0OVcNRnd7IH9XnR_G-20" value="" style="endArrow=classic;html=1;rounded=0;" edge="1" parent="1" source="mTr0OVcNRnd7IH9XnR_G-4" target="mTr0OVcNRnd7IH9XnR_G-10">
          <mxGeometry width="50" height="50" relative="1" as="geometry">
            <mxPoint x="367" y="392" as="sourcePoint" />
            <mxPoint x="417" y="342" as="targetPoint" />
          </mxGeometry>
        </mxCell>
        <mxCell id="mTr0OVcNRnd7IH9XnR_G-21" value="" style="endArrow=classic;html=1;rounded=0;" edge="1" parent="1" source="mTr0OVcNRnd7IH9XnR_G-5" target="mTr0OVcNRnd7IH9XnR_G-10">
          <mxGeometry width="50" height="50" relative="1" as="geometry">
            <mxPoint x="540" y="402" as="sourcePoint" />
            <mxPoint x="590" y="352" as="targetPoint" />
          </mxGeometry>
        </mxCell>
        <mxCell id="mTr0OVcNRnd7IH9XnR_G-22" value="" style="endArrow=classic;html=1;rounded=0;" edge="1" parent="1" source="mTr0OVcNRnd7IH9XnR_G-10" target="mTr0OVcNRnd7IH9XnR_G-14">
          <mxGeometry width="50" height="50" relative="1" as="geometry">
            <mxPoint x="380" y="292" as="sourcePoint" />
            <mxPoint x="430" y="242" as="targetPoint" />
          </mxGeometry>
        </mxCell>
        <mxCell id="mTr0OVcNRnd7IH9XnR_G-23" value="上传数据" style="text;html=1;align=center;verticalAlign=middle;resizable=0;points=[];autosize=1;strokeColor=none;fillColor=none;" vertex="1" parent="1">
          <mxGeometry x="500" y="342" width="70" height="30" as="geometry" />
        </mxCell>
        <mxCell id="mTr0OVcNRnd7IH9XnR_G-26" value="训练数据" style="text;html=1;align=center;verticalAlign=middle;resizable=0;points=[];autosize=1;strokeColor=none;fillColor=none;" vertex="1" parent="1">
          <mxGeometry x="460" y="252" width="70" height="30" as="geometry" />
        </mxCell>
        <mxCell id="mTr0OVcNRnd7IH9XnR_G-27" value="" style="sketch=0;outlineConnect=0;fontColor=#232F3E;gradientColor=none;fillColor=#232F3D;strokeColor=none;dashed=0;verticalLabelPosition=bottom;verticalAlign=top;align=center;html=1;fontSize=12;fontStyle=0;aspect=fixed;pointerEvents=1;shape=mxgraph.aws4.mobile_client;" vertex="1" parent="1">
          <mxGeometry x="694" y="422" width="41" height="78" as="geometry" />
        </mxCell>
        <mxCell id="mTr0OVcNRnd7IH9XnR_G-28" value="" style="sketch=0;outlineConnect=0;fontColor=#232F3E;gradientColor=none;fillColor=#232F3D;strokeColor=none;dashed=0;verticalLabelPosition=bottom;verticalAlign=top;align=center;html=1;fontSize=12;fontStyle=0;aspect=fixed;pointerEvents=1;shape=mxgraph.aws4.mobile_client;" vertex="1" parent="1">
          <mxGeometry x="764" y="422" width="41" height="78" as="geometry" />
        </mxCell>
        <mxCell id="mTr0OVcNRnd7IH9XnR_G-29" value="" style="sketch=0;outlineConnect=0;fontColor=#232F3E;gradientColor=none;fillColor=#232F3D;strokeColor=none;dashed=0;verticalLabelPosition=bottom;verticalAlign=top;align=center;html=1;fontSize=12;fontStyle=0;aspect=fixed;pointerEvents=1;shape=mxgraph.aws4.mobile_client;" vertex="1" parent="1">
          <mxGeometry x="880" y="422" width="41" height="78" as="geometry" />
        </mxCell>
        <mxCell id="mTr0OVcNRnd7IH9XnR_G-30" value="..." style="text;html=1;align=center;verticalAlign=middle;resizable=0;points=[];autosize=1;strokeColor=none;fillColor=none;fontSize=18;" vertex="1" parent="1">
          <mxGeometry x="824" y="439" width="40" height="40" as="geometry" />
        </mxCell>
        <mxCell id="mTr0OVcNRnd7IH9XnR_G-33" value="全局模型" style="text;html=1;align=center;verticalAlign=middle;resizable=0;points=[];autosize=1;strokeColor=none;fillColor=none;fontSize=14;" vertex="1" parent="1">
          <mxGeometry x="667" y="150" width="80" height="30" as="geometry" />
        </mxCell>
        <mxCell id="mTr0OVcNRnd7IH9XnR_G-42" value="" style="sketch=0;points=[[0,0,0],[0.25,0,0],[0.5,0,0],[0.75,0,0],[1,0,0],[0,1,0],[0.25,1,0],[0.5,1,0],[0.75,1,0],[1,1,0],[0,0.25,0],[0,0.5,0],[0,0.75,0],[1,0.25,0],[1,0.5,0],[1,0.75,0]];outlineConnect=0;fontColor=#232F3E;fillColor=#01A88D;strokeColor=#ffffff;dashed=0;verticalLabelPosition=bottom;verticalAlign=top;align=center;html=1;fontSize=12;fontStyle=0;aspect=fixed;shape=mxgraph.aws4.resourceIcon;resIcon=mxgraph.aws4.deep_learning_amis;" vertex="1" parent="1">
          <mxGeometry x="693" y="340" width="45" height="45" as="geometry" />
        </mxCell>
        <mxCell id="mTr0OVcNRnd7IH9XnR_G-43" value="" style="sketch=0;points=[[0,0,0],[0.25,0,0],[0.5,0,0],[0.75,0,0],[1,0,0],[0,1,0],[0.25,1,0],[0.5,1,0],[0.75,1,0],[1,1,0],[0,0.25,0],[0,0.5,0],[0,0.75,0],[1,0.25,0],[1,0.5,0],[1,0.75,0]];outlineConnect=0;fontColor=#232F3E;fillColor=#01A88D;strokeColor=#ffffff;dashed=0;verticalLabelPosition=bottom;verticalAlign=top;align=center;html=1;fontSize=12;fontStyle=0;aspect=fixed;shape=mxgraph.aws4.resourceIcon;resIcon=mxgraph.aws4.deep_learning_amis;" vertex="1" parent="1">
          <mxGeometry x="762" y="340" width="45" height="45" as="geometry" />
        </mxCell>
        <mxCell id="mTr0OVcNRnd7IH9XnR_G-44" value="" style="sketch=0;points=[[0,0,0],[0.25,0,0],[0.5,0,0],[0.75,0,0],[1,0,0],[0,1,0],[0.25,1,0],[0.5,1,0],[0.75,1,0],[1,1,0],[0,0.25,0],[0,0.5,0],[0,0.75,0],[1,0.25,0],[1,0.5,0],[1,0.75,0]];outlineConnect=0;fontColor=#232F3E;fillColor=#01A88D;strokeColor=#ffffff;dashed=0;verticalLabelPosition=bottom;verticalAlign=top;align=center;html=1;fontSize=12;fontStyle=0;aspect=fixed;shape=mxgraph.aws4.resourceIcon;resIcon=mxgraph.aws4.deep_learning_amis;" vertex="1" parent="1">
          <mxGeometry x="878" y="340" width="45" height="45" as="geometry" />
        </mxCell>
        <mxCell id="mTr0OVcNRnd7IH9XnR_G-45" value="移动设备" style="text;html=1;align=center;verticalAlign=middle;resizable=0;points=[];autosize=1;strokeColor=none;fillColor=none;fontSize=14;" vertex="1" parent="1">
          <mxGeometry x="614" y="447" width="80" height="30" as="geometry" />
        </mxCell>
        <mxCell id="mTr0OVcNRnd7IH9XnR_G-46" value="局部模型" style="text;html=1;align=center;verticalAlign=middle;resizable=0;points=[];autosize=1;strokeColor=none;fillColor=none;fontSize=14;" vertex="1" parent="1">
          <mxGeometry x="614" y="347.5" width="80" height="30" as="geometry" />
        </mxCell>
        <mxCell id="mTr0OVcNRnd7IH9XnR_G-47" value="" style="endArrow=classic;html=1;rounded=0;" edge="1" parent="1" source="mTr0OVcNRnd7IH9XnR_G-27" target="mTr0OVcNRnd7IH9XnR_G-42">
          <mxGeometry width="50" height="50" relative="1" as="geometry">
            <mxPoint x="704" y="490" as="sourcePoint" />
            <mxPoint x="754" y="440" as="targetPoint" />
          </mxGeometry>
        </mxCell>
        <mxCell id="mTr0OVcNRnd7IH9XnR_G-48" value="" style="endArrow=classic;html=1;rounded=0;" edge="1" parent="1" source="mTr0OVcNRnd7IH9XnR_G-28" target="mTr0OVcNRnd7IH9XnR_G-43">
          <mxGeometry width="50" height="50" relative="1" as="geometry">
            <mxPoint x="814" y="440" as="sourcePoint" />
            <mxPoint x="864" y="390" as="targetPoint" />
          </mxGeometry>
        </mxCell>
        <mxCell id="mTr0OVcNRnd7IH9XnR_G-49" value="" style="endArrow=classic;html=1;rounded=0;" edge="1" parent="1" source="mTr0OVcNRnd7IH9XnR_G-29" target="mTr0OVcNRnd7IH9XnR_G-44">
          <mxGeometry width="50" height="50" relative="1" as="geometry">
            <mxPoint x="795" y="434" as="sourcePoint" />
            <mxPoint x="795" y="395" as="targetPoint" />
          </mxGeometry>
        </mxCell>
        <mxCell id="mTr0OVcNRnd7IH9XnR_G-51" value="" style="verticalLabelPosition=bottom;html=1;verticalAlign=top;strokeWidth=1;align=center;outlineConnect=0;dashed=0;outlineConnect=0;shape=mxgraph.aws3d.dataServer;strokeColor=#5E5E5E;aspect=fixed;" vertex="1" parent="1">
          <mxGeometry x="761.39" y="232" width="81.23" height="70" as="geometry" />
        </mxCell>
        <mxCell id="mTr0OVcNRnd7IH9XnR_G-52" value="服务器" style="text;html=1;align=center;verticalAlign=middle;resizable=0;points=[];autosize=1;strokeColor=none;fillColor=none;fontSize=14;" vertex="1" parent="1">
          <mxGeometry x="696.39" y="252" width="70" height="30" as="geometry" />
        </mxCell>
        <mxCell id="mTr0OVcNRnd7IH9XnR_G-53" value="" style="sketch=0;points=[[0,0,0],[0.25,0,0],[0.5,0,0],[0.75,0,0],[1,0,0],[0,1,0],[0.25,1,0],[0.5,1,0],[0.75,1,0],[1,1,0],[0,0.25,0],[0,0.5,0],[0,0.75,0],[1,0.25,0],[1,0.5,0],[1,0.75,0]];outlineConnect=0;fontColor=#232F3E;fillColor=#01A88D;strokeColor=#ffffff;dashed=0;verticalLabelPosition=bottom;verticalAlign=top;align=center;html=1;fontSize=12;fontStyle=0;aspect=fixed;shape=mxgraph.aws4.resourceIcon;resIcon=mxgraph.aws4.deep_learning_amis;" vertex="1" parent="1">
          <mxGeometry x="763.62" y="130" width="78" height="78" as="geometry" />
        </mxCell>
        <mxCell id="mTr0OVcNRnd7IH9XnR_G-54" value="" style="endArrow=classic;html=1;rounded=0;" edge="1" parent="1">
          <mxGeometry width="50" height="50" relative="1" as="geometry">
            <mxPoint x="715.8807591623035" y="333" as="sourcePoint" />
            <mxPoint x="750.3015968586387" y="295" as="targetPoint" />
          </mxGeometry>
        </mxCell>
        <mxCell id="mTr0OVcNRnd7IH9XnR_G-55" value="" style="endArrow=classic;html=1;rounded=0;" edge="1" parent="1">
          <mxGeometry width="50" height="50" relative="1" as="geometry">
            <mxPoint x="780.6242146596858" y="338" as="sourcePoint" />
            <mxPoint x="787.589554973822" y="300" as="targetPoint" />
          </mxGeometry>
        </mxCell>
        <mxCell id="mTr0OVcNRnd7IH9XnR_G-56" value="" style="endArrow=classic;html=1;rounded=0;exitX=0.5;exitY=0;exitDx=0;exitDy=0;exitPerimeter=0;" edge="1" parent="1">
          <mxGeometry width="50" height="50" relative="1" as="geometry">
            <mxPoint x="884.5" y="340" as="sourcePoint" />
            <mxPoint x="826.6199999999999" y="297.10198487232856" as="targetPoint" />
          </mxGeometry>
        </mxCell>
        <mxCell id="mTr0OVcNRnd7IH9XnR_G-58" value="" style="endArrow=classic;html=1;rounded=0;" edge="1" parent="1" source="mTr0OVcNRnd7IH9XnR_G-51" target="mTr0OVcNRnd7IH9XnR_G-53">
          <mxGeometry width="50" height="50" relative="1" as="geometry">
            <mxPoint x="749" y="330" as="sourcePoint" />
            <mxPoint x="799" y="280" as="targetPoint" />
          </mxGeometry>
        </mxCell>
        <mxCell id="mTr0OVcNRnd7IH9XnR_G-59" value="本地训练" style="text;html=1;align=center;verticalAlign=middle;resizable=0;points=[];autosize=1;strokeColor=none;fillColor=none;" vertex="1" parent="1">
          <mxGeometry x="640" y="392" width="70" height="30" as="geometry" />
        </mxCell>
        <mxCell id="mTr0OVcNRnd7IH9XnR_G-60" value="上传权重" style="text;html=1;align=center;verticalAlign=middle;resizable=0;points=[];autosize=1;strokeColor=none;fillColor=none;" vertex="1" parent="1">
          <mxGeometry x="664" y="292" width="70" height="30" as="geometry" />
        </mxCell>
        <mxCell id="mTr0OVcNRnd7IH9XnR_G-61" value="全局训练" style="text;html=1;align=center;verticalAlign=middle;resizable=0;points=[];autosize=1;strokeColor=none;fillColor=none;" vertex="1" parent="1">
          <mxGeometry x="737" y="208" width="70" height="30" as="geometry" />
        </mxCell>
        <mxCell id="mTr0OVcNRnd7IH9XnR_G-63" value="" style="endArrow=none;html=1;rounded=0;dashed=1;startArrow=classic;startFill=1;endFill=0;" edge="1" parent="1">
          <mxGeometry width="50" height="50" relative="1" as="geometry">
            <mxPoint x="813" y="234" as="sourcePoint" />
            <mxPoint x="813" y="210" as="targetPoint" />
          </mxGeometry>
        </mxCell>
        <mxCell id="mTr0OVcNRnd7IH9XnR_G-64" value="" style="endArrow=none;html=1;rounded=0;startArrow=classic;startFill=1;endFill=0;dashed=1;" edge="1" parent="1">
          <mxGeometry width="50" height="50" relative="1" as="geometry">
            <mxPoint x="736.8807591623035" y="332" as="sourcePoint" />
            <mxPoint x="771.3015968586387" y="294" as="targetPoint" />
          </mxGeometry>
        </mxCell>
        <mxCell id="mTr0OVcNRnd7IH9XnR_G-65" value="" style="endArrow=none;html=1;rounded=0;startArrow=classic;startFill=1;endFill=0;dashed=1;" edge="1" parent="1">
          <mxGeometry width="50" height="50" relative="1" as="geometry">
            <mxPoint x="801.6242146596858" y="337" as="sourcePoint" />
            <mxPoint x="808.589554973822" y="299" as="targetPoint" />
          </mxGeometry>
        </mxCell>
        <mxCell id="mTr0OVcNRnd7IH9XnR_G-66" value="" style="endArrow=none;html=1;rounded=0;exitX=0.5;exitY=0;exitDx=0;exitDy=0;exitPerimeter=0;startArrow=classic;startFill=1;endFill=0;dashed=1;" edge="1" parent="1">
          <mxGeometry width="50" height="50" relative="1" as="geometry">
            <mxPoint x="905.5" y="339" as="sourcePoint" />
            <mxPoint x="847.6199999999999" y="296.10198487232856" as="targetPoint" />
          </mxGeometry>
        </mxCell>
        <mxCell id="mTr0OVcNRnd7IH9XnR_G-67" value="保存权重" style="text;html=1;align=center;verticalAlign=middle;resizable=0;points=[];autosize=1;strokeColor=none;fillColor=none;" vertex="1" parent="1">
          <mxGeometry x="810" y="208" width="70" height="30" as="geometry" />
        </mxCell>
        <mxCell id="mTr0OVcNRnd7IH9XnR_G-68" value="下载权重" style="text;html=1;align=center;verticalAlign=middle;resizable=0;points=[];autosize=1;strokeColor=none;fillColor=none;" vertex="1" parent="1">
          <mxGeometry x="864" y="290" width="70" height="30" as="geometry" />
        </mxCell>
        <mxCell id="mTr0OVcNRnd7IH9XnR_G-69" value="" style="endArrow=none;dashed=1;html=1;rounded=0;" edge="1" parent="1">
          <mxGeometry width="50" height="50" relative="1" as="geometry">
            <mxPoint x="600" y="470" as="sourcePoint" />
            <mxPoint x="600" y="150" as="targetPoint" />
          </mxGeometry>
        </mxCell>
      </root>
    </mxGraphModel>
  </diagram>
  <diagram id="k20c5njvyAuZSdy-xLdN" name="第 2 页">
    <mxGraphModel dx="1134" dy="730" grid="1" gridSize="10" guides="1" tooltips="1" connect="1" arrows="1" fold="1" page="1" pageScale="1" pageWidth="1350" pageHeight="600" math="0" shadow="0">
      <root>
        <mxCell id="0" />
        <mxCell id="1" parent="0" />
        <mxCell id="SwZ1HhXvIo6VnyP5Fpxa-2" value="" style="shape=mxgraph.signs.transportation.car_4;html=1;pointerEvents=1;fillColor=#000000;strokeColor=none;verticalLabelPosition=bottom;verticalAlign=top;align=center;" vertex="1" parent="1">
          <mxGeometry x="220" y="300" width="60" height="56" as="geometry" />
        </mxCell>
        <mxCell id="SwZ1HhXvIo6VnyP5Fpxa-4" value="" style="shape=mxgraph.signs.transportation.car_4;html=1;pointerEvents=1;fillColor=#000000;strokeColor=none;verticalLabelPosition=bottom;verticalAlign=top;align=center;" vertex="1" parent="1">
          <mxGeometry x="290" y="300" width="60" height="56" as="geometry" />
        </mxCell>
        <mxCell id="SwZ1HhXvIo6VnyP5Fpxa-5" value="" style="shape=mxgraph.signs.transportation.car_4;html=1;pointerEvents=1;fillColor=#000000;strokeColor=none;verticalLabelPosition=bottom;verticalAlign=top;align=center;" vertex="1" parent="1">
          <mxGeometry x="420" y="300" width="60" height="56" as="geometry" />
        </mxCell>
        <mxCell id="SwZ1HhXvIo6VnyP5Fpxa-6" value="..." style="text;html=1;align=center;verticalAlign=middle;resizable=0;points=[];autosize=1;strokeColor=none;fillColor=none;fontSize=18;" vertex="1" parent="1">
          <mxGeometry x="368" y="303" width="40" height="40" as="geometry" />
        </mxCell>
        <mxCell id="SwZ1HhXvIo6VnyP5Fpxa-7" value="" style="verticalLabelPosition=bottom;html=1;verticalAlign=top;strokeWidth=1;align=center;outlineConnect=0;dashed=0;outlineConnect=0;shape=mxgraph.aws3d.dataServer;strokeColor=#5E5E5E;aspect=fixed;" vertex="1" parent="1">
          <mxGeometry x="310" y="190" width="81.23" height="70" as="geometry" />
        </mxCell>
        <mxCell id="SwZ1HhXvIo6VnyP5Fpxa-8" value="" style="sketch=0;points=[[0,0,0],[0.25,0,0],[0.5,0,0],[0.75,0,0],[1,0,0],[0,1,0],[0.25,1,0],[0.5,1,0],[0.75,1,0],[1,1,0],[0,0.25,0],[0,0.5,0],[0,0.75,0],[1,0.25,0],[1,0.5,0],[1,0.75,0]];outlineConnect=0;fontColor=#232F3E;fillColor=#01A88D;strokeColor=#ffffff;dashed=0;verticalLabelPosition=bottom;verticalAlign=top;align=center;html=1;fontSize=12;fontStyle=0;aspect=fixed;shape=mxgraph.aws4.resourceIcon;resIcon=mxgraph.aws4.deep_learning_amis;" vertex="1" parent="1">
          <mxGeometry x="315.61" y="80" width="70" height="70" as="geometry" />
        </mxCell>
        <mxCell id="SwZ1HhXvIo6VnyP5Fpxa-9" value="" style="endArrow=classic;html=1;rounded=0;exitX=0.77;exitY=0.01;exitDx=0;exitDy=0;exitPerimeter=0;" edge="1" parent="1" source="SwZ1HhXvIo6VnyP5Fpxa-2" target="SwZ1HhXvIo6VnyP5Fpxa-7">
          <mxGeometry width="50" height="50" relative="1" as="geometry">
            <mxPoint x="160" y="320" as="sourcePoint" />
            <mxPoint x="210" y="270" as="targetPoint" />
          </mxGeometry>
        </mxCell>
        <mxCell id="SwZ1HhXvIo6VnyP5Fpxa-10" value="" style="endArrow=classic;html=1;rounded=0;" edge="1" parent="1" source="SwZ1HhXvIo6VnyP5Fpxa-4" target="SwZ1HhXvIo6VnyP5Fpxa-7">
          <mxGeometry width="50" height="50" relative="1" as="geometry">
            <mxPoint x="110" y="360" as="sourcePoint" />
            <mxPoint x="160" y="310" as="targetPoint" />
          </mxGeometry>
        </mxCell>
        <mxCell id="SwZ1HhXvIo6VnyP5Fpxa-11" value="" style="endArrow=classic;html=1;rounded=0;exitX=0.23;exitY=0.01;exitDx=0;exitDy=0;exitPerimeter=0;" edge="1" parent="1" source="SwZ1HhXvIo6VnyP5Fpxa-5" target="SwZ1HhXvIo6VnyP5Fpxa-7">
          <mxGeometry width="50" height="50" relative="1" as="geometry">
            <mxPoint x="450" y="330" as="sourcePoint" />
            <mxPoint x="350" y="270" as="targetPoint" />
          </mxGeometry>
        </mxCell>
        <mxCell id="SwZ1HhXvIo6VnyP5Fpxa-12" value="" style="endArrow=classic;html=1;rounded=0;" edge="1" parent="1" source="SwZ1HhXvIo6VnyP5Fpxa-7" target="SwZ1HhXvIo6VnyP5Fpxa-8">
          <mxGeometry width="50" height="50" relative="1" as="geometry">
            <mxPoint x="444" y="311" as="sourcePoint" />
            <mxPoint x="399" y="270" as="targetPoint" />
          </mxGeometry>
        </mxCell>
        <mxCell id="SwZ1HhXvIo6VnyP5Fpxa-14" value="" style="sketch=0;points=[[0,0,0],[0.25,0,0],[0.5,0,0],[0.75,0,0],[1,0,0],[0,1,0],[0.25,1,0],[0.5,1,0],[0.75,1,0],[1,1,0],[0,0.25,0],[0,0.5,0],[0,0.75,0],[1,0.25,0],[1,0.5,0],[1,0.75,0]];outlineConnect=0;fontColor=#232F3E;fillColor=#01A88D;strokeColor=#ffffff;dashed=0;verticalLabelPosition=bottom;verticalAlign=top;align=center;html=1;fontSize=12;fontStyle=0;aspect=fixed;shape=mxgraph.aws4.resourceIcon;resIcon=mxgraph.aws4.deep_learning_amis;" vertex="1" parent="1">
          <mxGeometry x="523" y="80" width="70" height="70" as="geometry" />
        </mxCell>
        <mxCell id="SwZ1HhXvIo6VnyP5Fpxa-15" value="" style="shape=mxgraph.signs.transportation.car_4;html=1;pointerEvents=1;fillColor=#000000;strokeColor=none;verticalLabelPosition=bottom;verticalAlign=top;align=center;" vertex="1" parent="1">
          <mxGeometry x="528" y="300" width="60" height="56" as="geometry" />
        </mxCell>
        <mxCell id="SwZ1HhXvIo6VnyP5Fpxa-18" value="车辆" style="text;html=1;align=center;verticalAlign=middle;resizable=0;points=[];autosize=1;strokeColor=none;fillColor=none;fontSize=14;" vertex="1" parent="1">
          <mxGeometry x="170" y="308" width="50" height="30" as="geometry" />
        </mxCell>
        <mxCell id="SwZ1HhXvIo6VnyP5Fpxa-19" value="服务器" style="text;html=1;align=center;verticalAlign=middle;resizable=0;points=[];autosize=1;strokeColor=none;fillColor=none;fontSize=14;" vertex="1" parent="1">
          <mxGeometry x="240" y="210" width="70" height="30" as="geometry" />
        </mxCell>
        <mxCell id="SwZ1HhXvIo6VnyP5Fpxa-20" value="深度学习模型" style="text;html=1;align=center;verticalAlign=middle;resizable=0;points=[];autosize=1;strokeColor=none;fillColor=none;fontSize=14;" vertex="1" parent="1">
          <mxGeometry x="207" y="100" width="110" height="30" as="geometry" />
        </mxCell>
        <mxCell id="SwZ1HhXvIo6VnyP5Fpxa-21" value="上传数据" style="text;html=1;align=center;verticalAlign=middle;resizable=0;points=[];autosize=1;strokeColor=none;fillColor=none;" vertex="1" parent="1">
          <mxGeometry x="215" y="260" width="70" height="30" as="geometry" />
        </mxCell>
        <mxCell id="SwZ1HhXvIo6VnyP5Fpxa-22" value="训练模型" style="text;html=1;align=center;verticalAlign=middle;resizable=0;points=[];autosize=1;strokeColor=none;fillColor=none;" vertex="1" parent="1">
          <mxGeometry x="280" y="160" width="70" height="30" as="geometry" />
        </mxCell>
        <mxCell id="SwZ1HhXvIo6VnyP5Fpxa-23" value="上传请求" style="text;html=1;align=center;verticalAlign=middle;resizable=0;points=[];autosize=1;strokeColor=none;fillColor=none;" vertex="1" parent="1">
          <mxGeometry x="480" y="258" width="70" height="30" as="geometry" />
        </mxCell>
        <mxCell id="SwZ1HhXvIo6VnyP5Fpxa-24" value="返回结果" style="text;html=1;align=center;verticalAlign=middle;resizable=0;points=[];autosize=1;strokeColor=none;fillColor=none;" vertex="1" parent="1">
          <mxGeometry x="570" y="260" width="70" height="30" as="geometry" />
        </mxCell>
        <mxCell id="SwZ1HhXvIo6VnyP5Fpxa-25" value="" style="endArrow=none;dashed=1;html=1;rounded=0;" edge="1" parent="1">
          <mxGeometry width="50" height="50" relative="1" as="geometry">
            <mxPoint x="646" y="338" as="sourcePoint" />
            <mxPoint x="646" y="58" as="targetPoint" />
          </mxGeometry>
        </mxCell>
        <mxCell id="Vg5k9NDUOcZOUJCgJMiN-20" style="edgeStyle=orthogonalEdgeStyle;rounded=0;orthogonalLoop=1;jettySize=auto;html=1;exitX=0.5;exitY=0;exitDx=0;exitDy=0;exitPerimeter=0;" edge="1" parent="1" source="Vg5k9NDUOcZOUJCgJMiN-1" target="Vg5k9NDUOcZOUJCgJMiN-16">
          <mxGeometry relative="1" as="geometry" />
        </mxCell>
        <mxCell id="Vg5k9NDUOcZOUJCgJMiN-1" value="" style="shape=mxgraph.signs.transportation.car_4;html=1;pointerEvents=1;fillColor=#000000;strokeColor=none;verticalLabelPosition=bottom;verticalAlign=top;align=center;" vertex="1" parent="1">
          <mxGeometry x="721" y="329" width="60" height="56" as="geometry" />
        </mxCell>
        <mxCell id="Vg5k9NDUOcZOUJCgJMiN-21" style="edgeStyle=orthogonalEdgeStyle;rounded=0;orthogonalLoop=1;jettySize=auto;html=1;exitX=0.5;exitY=0;exitDx=0;exitDy=0;exitPerimeter=0;" edge="1" parent="1" source="Vg5k9NDUOcZOUJCgJMiN-2" target="Vg5k9NDUOcZOUJCgJMiN-17">
          <mxGeometry relative="1" as="geometry" />
        </mxCell>
        <mxCell id="Vg5k9NDUOcZOUJCgJMiN-2" value="" style="shape=mxgraph.signs.transportation.car_4;html=1;pointerEvents=1;fillColor=#000000;strokeColor=none;verticalLabelPosition=bottom;verticalAlign=top;align=center;" vertex="1" parent="1">
          <mxGeometry x="791" y="329" width="60" height="56" as="geometry" />
        </mxCell>
        <mxCell id="Vg5k9NDUOcZOUJCgJMiN-22" style="edgeStyle=orthogonalEdgeStyle;rounded=0;orthogonalLoop=1;jettySize=auto;html=1;exitX=0.5;exitY=0;exitDx=0;exitDy=0;exitPerimeter=0;" edge="1" parent="1" source="Vg5k9NDUOcZOUJCgJMiN-3" target="Vg5k9NDUOcZOUJCgJMiN-18">
          <mxGeometry relative="1" as="geometry" />
        </mxCell>
        <mxCell id="Vg5k9NDUOcZOUJCgJMiN-3" value="" style="shape=mxgraph.signs.transportation.car_4;html=1;pointerEvents=1;fillColor=#000000;strokeColor=none;verticalLabelPosition=bottom;verticalAlign=top;align=center;" vertex="1" parent="1">
          <mxGeometry x="921" y="329" width="60" height="56" as="geometry" />
        </mxCell>
        <mxCell id="Vg5k9NDUOcZOUJCgJMiN-4" value="..." style="text;html=1;align=center;verticalAlign=middle;resizable=0;points=[];autosize=1;strokeColor=none;fillColor=none;fontSize=18;" vertex="1" parent="1">
          <mxGeometry x="869" y="332" width="40" height="40" as="geometry" />
        </mxCell>
        <mxCell id="Vg5k9NDUOcZOUJCgJMiN-5" value="" style="verticalLabelPosition=bottom;html=1;verticalAlign=top;strokeWidth=1;align=center;outlineConnect=0;dashed=0;outlineConnect=0;shape=mxgraph.aws3d.dataServer;strokeColor=#5E5E5E;aspect=fixed;" vertex="1" parent="1">
          <mxGeometry x="802" y="159" width="81.23" height="70" as="geometry" />
        </mxCell>
        <mxCell id="Vg5k9NDUOcZOUJCgJMiN-6" value="" style="sketch=0;points=[[0,0,0],[0.25,0,0],[0.5,0,0],[0.75,0,0],[1,0,0],[0,1,0],[0.25,1,0],[0.5,1,0],[0.75,1,0],[1,1,0],[0,0.25,0],[0,0.5,0],[0,0.75,0],[1,0.25,0],[1,0.5,0],[1,0.75,0]];outlineConnect=0;fontColor=#232F3E;fillColor=#01A88D;strokeColor=#ffffff;dashed=0;verticalLabelPosition=bottom;verticalAlign=top;align=center;html=1;fontSize=12;fontStyle=0;aspect=fixed;shape=mxgraph.aws4.resourceIcon;resIcon=mxgraph.aws4.deep_learning_amis;" vertex="1" parent="1">
          <mxGeometry x="807.61" y="49" width="70" height="70" as="geometry" />
        </mxCell>
        <mxCell id="Vg5k9NDUOcZOUJCgJMiN-10" value="" style="endArrow=classic;html=1;rounded=0;" edge="1" parent="1" source="Vg5k9NDUOcZOUJCgJMiN-5" target="Vg5k9NDUOcZOUJCgJMiN-6">
          <mxGeometry width="50" height="50" relative="1" as="geometry">
            <mxPoint x="936" y="280" as="sourcePoint" />
            <mxPoint x="891" y="239" as="targetPoint" />
          </mxGeometry>
        </mxCell>
        <mxCell id="Vg5k9NDUOcZOUJCgJMiN-11" value="车辆" style="text;html=1;align=center;verticalAlign=middle;resizable=0;points=[];autosize=1;strokeColor=none;fillColor=none;fontSize=14;" vertex="1" parent="1">
          <mxGeometry x="671" y="337" width="50" height="30" as="geometry" />
        </mxCell>
        <mxCell id="Vg5k9NDUOcZOUJCgJMiN-12" value="服务器" style="text;html=1;align=center;verticalAlign=middle;resizable=0;points=[];autosize=1;strokeColor=none;fillColor=none;fontSize=14;" vertex="1" parent="1">
          <mxGeometry x="732" y="179" width="70" height="30" as="geometry" />
        </mxCell>
        <mxCell id="Vg5k9NDUOcZOUJCgJMiN-13" value="深度学习模型" style="text;html=1;align=center;verticalAlign=middle;resizable=0;points=[];autosize=1;strokeColor=none;fillColor=none;fontSize=14;" vertex="1" parent="1">
          <mxGeometry x="699" y="69" width="110" height="30" as="geometry" />
        </mxCell>
        <mxCell id="Vg5k9NDUOcZOUJCgJMiN-14" value="上传权重" style="text;html=1;align=center;verticalAlign=middle;resizable=0;points=[];autosize=1;strokeColor=none;fillColor=none;" vertex="1" parent="1">
          <mxGeometry x="715" y="223" width="70" height="30" as="geometry" />
        </mxCell>
        <mxCell id="Vg5k9NDUOcZOUJCgJMiN-15" value="全局训练" style="text;html=1;align=center;verticalAlign=middle;resizable=0;points=[];autosize=1;strokeColor=none;fillColor=none;" vertex="1" parent="1">
          <mxGeometry x="772" y="129" width="70" height="30" as="geometry" />
        </mxCell>
        <mxCell id="Vg5k9NDUOcZOUJCgJMiN-16" value="" style="sketch=0;points=[[0,0,0],[0.25,0,0],[0.5,0,0],[0.75,0,0],[1,0,0],[0,1,0],[0.25,1,0],[0.5,1,0],[0.75,1,0],[1,1,0],[0,0.25,0],[0,0.5,0],[0,0.75,0],[1,0.25,0],[1,0.5,0],[1,0.75,0]];outlineConnect=0;fontColor=#232F3E;fillColor=#01A88D;strokeColor=#ffffff;dashed=0;verticalLabelPosition=bottom;verticalAlign=top;align=center;html=1;fontSize=12;fontStyle=0;aspect=fixed;shape=mxgraph.aws4.resourceIcon;resIcon=mxgraph.aws4.deep_learning_amis;" vertex="1" parent="1">
          <mxGeometry x="728.19" y="258" width="45.61" height="45.61" as="geometry" />
        </mxCell>
        <mxCell id="Vg5k9NDUOcZOUJCgJMiN-17" value="" style="sketch=0;points=[[0,0,0],[0.25,0,0],[0.5,0,0],[0.75,0,0],[1,0,0],[0,1,0],[0.25,1,0],[0.5,1,0],[0.75,1,0],[1,1,0],[0,0.25,0],[0,0.5,0],[0,0.75,0],[1,0.25,0],[1,0.5,0],[1,0.75,0]];outlineConnect=0;fontColor=#232F3E;fillColor=#01A88D;strokeColor=#ffffff;dashed=0;verticalLabelPosition=bottom;verticalAlign=top;align=center;html=1;fontSize=12;fontStyle=0;aspect=fixed;shape=mxgraph.aws4.resourceIcon;resIcon=mxgraph.aws4.deep_learning_amis;" vertex="1" parent="1">
          <mxGeometry x="798.19" y="258" width="45.61" height="45.61" as="geometry" />
        </mxCell>
        <mxCell id="Vg5k9NDUOcZOUJCgJMiN-18" value="" style="sketch=0;points=[[0,0,0],[0.25,0,0],[0.5,0,0],[0.75,0,0],[1,0,0],[0,1,0],[0.25,1,0],[0.5,1,0],[0.75,1,0],[1,1,0],[0,0.25,0],[0,0.5,0],[0,0.75,0],[1,0.25,0],[1,0.5,0],[1,0.75,0]];outlineConnect=0;fontColor=#232F3E;fillColor=#01A88D;strokeColor=#ffffff;dashed=0;verticalLabelPosition=bottom;verticalAlign=top;align=center;html=1;fontSize=12;fontStyle=0;aspect=fixed;shape=mxgraph.aws4.resourceIcon;resIcon=mxgraph.aws4.deep_learning_amis;" vertex="1" parent="1">
          <mxGeometry x="928.19" y="258" width="45.61" height="45.61" as="geometry" />
        </mxCell>
        <mxCell id="Vg5k9NDUOcZOUJCgJMiN-19" value="局部模型" style="text;html=1;align=center;verticalAlign=middle;resizable=0;points=[];autosize=1;strokeColor=none;fillColor=none;fontSize=14;" vertex="1" parent="1">
          <mxGeometry x="653" y="267.8" width="80" height="30" as="geometry" />
        </mxCell>
        <mxCell id="Vg5k9NDUOcZOUJCgJMiN-23" value="" style="endArrow=classic;html=1;rounded=0;" edge="1" parent="1" source="Vg5k9NDUOcZOUJCgJMiN-16" target="Vg5k9NDUOcZOUJCgJMiN-5">
          <mxGeometry width="50" height="50" relative="1" as="geometry">
            <mxPoint x="682" y="279" as="sourcePoint" />
            <mxPoint x="732" y="229" as="targetPoint" />
          </mxGeometry>
        </mxCell>
        <mxCell id="Vg5k9NDUOcZOUJCgJMiN-24" value="" style="endArrow=classic;html=1;rounded=0;" edge="1" parent="1" source="Vg5k9NDUOcZOUJCgJMiN-17" target="Vg5k9NDUOcZOUJCgJMiN-5">
          <mxGeometry width="50" height="50" relative="1" as="geometry">
            <mxPoint x="784" y="269" as="sourcePoint" />
            <mxPoint x="816" y="239" as="targetPoint" />
          </mxGeometry>
        </mxCell>
        <mxCell id="Vg5k9NDUOcZOUJCgJMiN-25" value="" style="endArrow=classic;html=1;rounded=0;" edge="1" parent="1" source="Vg5k9NDUOcZOUJCgJMiN-18" target="Vg5k9NDUOcZOUJCgJMiN-5">
          <mxGeometry width="50" height="50" relative="1" as="geometry">
            <mxPoint x="837" y="268" as="sourcePoint" />
            <mxPoint x="844" y="239" as="targetPoint" />
          </mxGeometry>
        </mxCell>
        <mxCell id="Vg5k9NDUOcZOUJCgJMiN-27" value="本地训练" style="text;html=1;align=center;verticalAlign=middle;resizable=0;points=[];autosize=1;strokeColor=none;fillColor=none;" vertex="1" parent="1">
          <mxGeometry x="680" y="303.61" width="70" height="30" as="geometry" />
        </mxCell>
        <mxCell id="eVgpRpPtsCxfV3In_sLA-2" value="" style="endArrow=none;html=1;rounded=0;dashed=1;startArrow=classic;startFill=1;endFill=0;" edge="1" parent="1">
          <mxGeometry width="50" height="50" relative="1" as="geometry">
            <mxPoint x="858" y="158" as="sourcePoint" />
            <mxPoint x="858" y="118" as="targetPoint" />
          </mxGeometry>
        </mxCell>
        <mxCell id="eVgpRpPtsCxfV3In_sLA-3" value="" style="endArrow=none;html=1;rounded=0;dashed=1;startArrow=classic;startFill=1;endFill=0;" edge="1" parent="1">
          <mxGeometry width="50" height="50" relative="1" as="geometry">
            <mxPoint x="789" y="258" as="sourcePoint" />
            <mxPoint x="821" y="228" as="targetPoint" />
          </mxGeometry>
        </mxCell>
        <mxCell id="eVgpRpPtsCxfV3In_sLA-4" value="" style="endArrow=none;html=1;rounded=0;dashed=1;startArrow=classic;startFill=1;endFill=0;" edge="1" parent="1">
          <mxGeometry width="50" height="50" relative="1" as="geometry">
            <mxPoint x="842" y="257" as="sourcePoint" />
            <mxPoint x="849" y="228" as="targetPoint" />
          </mxGeometry>
        </mxCell>
        <mxCell id="eVgpRpPtsCxfV3In_sLA-5" value="" style="endArrow=none;html=1;rounded=0;dashed=1;startArrow=classic;startFill=1;endFill=0;" edge="1" parent="1">
          <mxGeometry width="50" height="50" relative="1" as="geometry">
            <mxPoint x="943" y="262" as="sourcePoint" />
            <mxPoint x="898" y="226" as="targetPoint" />
          </mxGeometry>
        </mxCell>
        <mxCell id="fCfdRbduN2WougZYYhq7-1" value="保存权重" style="text;html=1;align=center;verticalAlign=middle;resizable=0;points=[];autosize=1;strokeColor=none;fillColor=none;" vertex="1" parent="1">
          <mxGeometry x="857" y="127" width="70" height="30" as="geometry" />
        </mxCell>
        <mxCell id="fCfdRbduN2WougZYYhq7-2" value="下载权重" style="text;html=1;align=center;verticalAlign=middle;resizable=0;points=[];autosize=1;strokeColor=none;fillColor=none;" vertex="1" parent="1">
          <mxGeometry x="916" y="223" width="70" height="30" as="geometry" />
        </mxCell>
        <mxCell id="zCaWD980FAl4RoHKN_nR-1" value="" style="verticalLabelPosition=bottom;html=1;verticalAlign=top;strokeWidth=1;align=center;outlineConnect=0;dashed=0;outlineConnect=0;shape=mxgraph.aws3d.dataServer;strokeColor=#5E5E5E;aspect=fixed;" vertex="1" parent="1">
          <mxGeometry x="517.39" y="183" width="81.23" height="70" as="geometry" />
        </mxCell>
        <mxCell id="zCaWD980FAl4RoHKN_nR-3" value="" style="endArrow=classic;html=1;rounded=0;exitX=0.5;exitY=0;exitDx=0;exitDy=0;exitPerimeter=0;" edge="1" parent="1">
          <mxGeometry width="50" height="50" relative="1" as="geometry">
            <mxPoint x="547" y="300" as="sourcePoint" />
            <mxPoint x="547.0028658536585" y="253" as="targetPoint" />
          </mxGeometry>
        </mxCell>
        <mxCell id="zCaWD980FAl4RoHKN_nR-5" value="" style="endArrow=classic;html=1;rounded=0;" edge="1" parent="1">
          <mxGeometry width="50" height="50" relative="1" as="geometry">
            <mxPoint x="548.0033009708739" y="183" as="sourcePoint" />
            <mxPoint x="548.0016990291263" y="150" as="targetPoint" />
          </mxGeometry>
        </mxCell>
        <mxCell id="zCaWD980FAl4RoHKN_nR-6" value="" style="endArrow=none;html=1;rounded=0;exitX=0.5;exitY=0;exitDx=0;exitDy=0;exitPerimeter=0;startArrow=classic;startFill=1;endFill=0;dashed=1;" edge="1" parent="1">
          <mxGeometry width="50" height="50" relative="1" as="geometry">
            <mxPoint x="568" y="300" as="sourcePoint" />
            <mxPoint x="568.0028658536585" y="253" as="targetPoint" />
          </mxGeometry>
        </mxCell>
        <mxCell id="zCaWD980FAl4RoHKN_nR-7" value="" style="endArrow=none;html=1;rounded=0;startArrow=classic;startFill=1;endFill=0;dashed=1;" edge="1" parent="1">
          <mxGeometry width="50" height="50" relative="1" as="geometry">
            <mxPoint x="569.0033009708739" y="183" as="sourcePoint" />
            <mxPoint x="569.0016990291263" y="150" as="targetPoint" />
          </mxGeometry>
        </mxCell>
        <mxCell id="zCaWD980FAl4RoHKN_nR-8" value="模型推理" style="text;html=1;align=center;verticalAlign=middle;resizable=0;points=[];autosize=1;strokeColor=none;fillColor=none;" vertex="1" parent="1">
          <mxGeometry x="483" y="159" width="70" height="30" as="geometry" />
        </mxCell>
        <mxCell id="zCaWD980FAl4RoHKN_nR-9" value="返回结果" style="text;html=1;align=center;verticalAlign=middle;resizable=0;points=[];autosize=1;strokeColor=none;fillColor=none;" vertex="1" parent="1">
          <mxGeometry x="570" y="157" width="70" height="30" as="geometry" />
        </mxCell>
        <mxCell id="zCaWD980FAl4RoHKN_nR-10" style="edgeStyle=orthogonalEdgeStyle;rounded=0;orthogonalLoop=1;jettySize=auto;html=1;exitX=0.5;exitY=0;exitDx=0;exitDy=0;exitPerimeter=0;" edge="1" parent="1">
          <mxGeometry relative="1" as="geometry">
            <mxPoint x="1054" y="234.0000000000001" as="sourcePoint" />
            <mxPoint x="1054" y="208.6099999999999" as="targetPoint" />
          </mxGeometry>
        </mxCell>
        <mxCell id="zCaWD980FAl4RoHKN_nR-11" value="" style="shape=mxgraph.signs.transportation.car_4;html=1;pointerEvents=1;fillColor=#000000;strokeColor=none;verticalLabelPosition=bottom;verticalAlign=top;align=center;" vertex="1" parent="1">
          <mxGeometry x="1031" y="234" width="60" height="56" as="geometry" />
        </mxCell>
        <mxCell id="zCaWD980FAl4RoHKN_nR-12" value="" style="sketch=0;points=[[0,0,0],[0.25,0,0],[0.5,0,0],[0.75,0,0],[1,0,0],[0,1,0],[0.25,1,0],[0.5,1,0],[0.75,1,0],[1,1,0],[0,0.25,0],[0,0.5,0],[0,0.75,0],[1,0.25,0],[1,0.5,0],[1,0.75,0]];outlineConnect=0;fontColor=#232F3E;fillColor=#01A88D;strokeColor=#ffffff;dashed=0;verticalLabelPosition=bottom;verticalAlign=top;align=center;html=1;fontSize=12;fontStyle=0;aspect=fixed;shape=mxgraph.aws4.resourceIcon;resIcon=mxgraph.aws4.deep_learning_amis;" vertex="1" parent="1">
          <mxGeometry x="1038.19" y="163" width="45.61" height="45.61" as="geometry" />
        </mxCell>
        <mxCell id="zCaWD980FAl4RoHKN_nR-13" style="edgeStyle=orthogonalEdgeStyle;rounded=0;orthogonalLoop=1;jettySize=auto;html=1;exitX=0.5;exitY=0;exitDx=0;exitDy=0;exitPerimeter=0;startArrow=classic;startFill=1;endArrow=none;endFill=0;dashed=1;" edge="1" parent="1">
          <mxGeometry relative="1" as="geometry">
            <mxPoint x="1071" y="234.0000000000001" as="sourcePoint" />
            <mxPoint x="1071" y="208.6099999999999" as="targetPoint" />
          </mxGeometry>
        </mxCell>
        <mxCell id="zCaWD980FAl4RoHKN_nR-14" value="模型推理" style="text;html=1;align=center;verticalAlign=middle;resizable=0;points=[];autosize=1;strokeColor=none;fillColor=none;" vertex="1" parent="1">
          <mxGeometry x="982.5" y="210.61" width="70" height="30" as="geometry" />
        </mxCell>
        <mxCell id="zCaWD980FAl4RoHKN_nR-15" value="返回结果" style="text;html=1;align=center;verticalAlign=middle;resizable=0;points=[];autosize=1;strokeColor=none;fillColor=none;" vertex="1" parent="1">
          <mxGeometry x="1069.5" y="208.61" width="70" height="30" as="geometry" />
        </mxCell>
      </root>
    </mxGraphModel>
  </diagram>
</mxfile>
